<svg width="625" height="625" viewBox="0 0 625 625" fill="none" xmlns="http://www.w3.org/2000/svg">
<rect width="624.35" height="624.35" rx="312.175" fill="white"/>
<path d="M0 312C0 484.313 139.687 624 312 624C484.313 624 624 484.313 624 312C624 139.687 484.313 0 312 0C139.687 0 0 139.687 0 312Z" fill="url(#paint0_linear_145_2)"/>
<path d="M312.401 517.433C309.18 517.473 306.04 516.617 303.227 515.068C279.291 501.204 101.997 390.048 95.2692 386.664C90.1722 384.299 86.7062 379.406 86.0946 373.819V217.851C85.9723 212.02 88.8267 206.556 93.7198 203.376L95.0246 202.642C112.191 191.999 169.604 156.973 178.697 151.916C180.777 150.693 183.142 150 185.588 150V150C190.105 150.081 193.986 152.853 197.778 155.308C216.3 167.302 274.464 204.745 284.755 208.677C293.359 212.632 302.778 214.63 312.279 214.467C323.044 214.712 333.646 212.102 343.106 206.964C353.192 201.665 408.799 166.553 426.982 155.347C430.724 153.041 434.738 150.163 439.133 150.163V150.163C441.539 150.163 443.945 150.856 446.025 152.08C456.463 157.87 527.658 201.419 530.676 203.335C535.691 206.352 538.708 211.816 538.668 217.647V373.575C538.097 379.161 534.631 384.054 529.493 386.419C522.806 390.089 346.042 501.244 321.658 514.823C318.763 516.495 315.623 517.392 312.401 517.433Z" fill="url(#paint1_linear_145_2)"/>
<path d="M311.464 517.433H312.361C315.582 517.474 318.722 516.617 321.535 515.027C345.471 501.163 522.683 390.008 529.371 386.623C534.508 384.258 537.974 379.406 538.545 373.779V217.851V217.851C538.612 213.539 533.648 211.953 529.868 214.029L393.186 289.083C342.761 316.773 311.423 369.733 311.423 427.261V517.433" fill="url(#paint2_linear_145_2)"/>
<path d="M310.705 514.307C310.705 514.82 310.289 515.235 309.777 515.235V515.235C306.59 515.276 303.483 514.428 300.7 512.895C277.019 499.179 101.695 389.208 95.0788 385.86C89.9958 383.52 86.5667 378.719 86.0019 373.152V218.846V218.846C85.9363 214.579 90.8471 213.01 94.587 215.063L251.563 301.262C288.037 321.291 310.705 359.599 310.705 401.21V514.307Z" fill="url(#paint3_linear_145_2)"/>
<path d="M186.667 250.846H209.546V360.866H248.928V382.62H186.792L186.667 250.846Z" fill="white"/>
<path d="M301.937 283.852C314.064 283.727 325.566 289.228 332.942 298.729V285.727H354.321V382.745H332.942V369.742C325.441 379.244 314.064 384.87 301.937 384.62C275.307 384.62 255.178 361.866 255.178 334.111C255.178 306.606 275.307 283.852 301.937 283.852ZM305.812 303.355C288.559 303.355 277.057 316.983 277.057 334.361C277.057 351.739 288.684 365.366 305.812 365.366C322.941 365.366 334.568 351.739 334.568 334.361C334.568 316.983 323.066 303.355 305.812 303.355Z" fill="white"/>
<path d="M370.95 365.992L421.834 305.231H371.7V285.852H449.339V302.98L398.705 363.491H450.465V382.87H370.95V365.992Z" fill="white"/>
<defs>
<linearGradient id="paint0_linear_145_2" x1="305.74" y1="-533.358" x2="313.802" y2="555.006" gradientUnits="userSpaceOnUse">
<stop offset="0.3379" stop-color="#5B8BEB"/>
<stop offset="0.7794" stop-color="#2742A2"/>
<stop offset="1" stop-color="#112283"/>
</linearGradient>
<linearGradient id="paint1_linear_145_2" x1="87.2322" y1="334.951" x2="2122.95" y2="319.183" gradientUnits="userSpaceOnUse">
<stop offset="1e-07" stop-color="#FFB900"/>
<stop offset="0.3376" stop-color="#F38000"/>
<stop offset="0.5673" stop-color="#F83C72"/>
<stop offset="0.78" stop-color="#FC1CBE"/>
<stop offset="0.93" stop-color="#FE08ED"/>
<stop offset="1" stop-color="#FF00FF"/>
</linearGradient>
<linearGradient id="paint2_linear_145_2" x1="213.226" y1="481.699" x2="2288.72" y2="-667.488" gradientUnits="userSpaceOnUse">
<stop stop-color="#EE0A3F"/>
<stop offset="1" stop-color="#EE0A3F" stop-opacity="0"/>
</linearGradient>
<linearGradient id="paint3_linear_145_2" x1="261.154" y1="407.027" x2="1253.42" y2="-392.295" gradientUnits="userSpaceOnUse">
<stop stop-color="#ED6600"/>
<stop offset="1" stop-color="#F98200"/>
</linearGradient>
</defs>
</svg>
